<?xml version="1.0" standalone="no"?>
<!DOCTYPE svg PUBLIC "-//W3C//DTD SVG 20010904//EN"
 "http://www.w3.org/TR/2001/REC-SVG-20010904/DTD/svg10.dtd">
<svg version="1.0" xmlns="http://www.w3.org/2000/svg"
 width="700.000000pt" height="700.000000pt" viewBox="0 0 700.000000 700.000000"
 preserveAspectRatio="xMidYMid meet">
<metadata>
Created by potrace 1.14, written by Peter Selinger 2001-2017
</metadata>
<g transform="translate(0.000000,700.000000) scale(0.100000,-0.100000)"
fill="#000000" stroke="none">
<path d="M3225 6830 c-1181 -106 -2200 -801 -2720 -1855 -168 -342 -268 -673
-321 -1070 -25 -183 -25 -627 0 -810 104 -772 428 -1430 966 -1965 438 -436
979 -737 1580 -879 277 -65 452 -85 760 -85 339 -1 541 24 854 103 1023 262
1887 1032 2270 2024 103 265 169 538 208 852 19 155 16 601 -6 760 -55 402
-153 730 -321 1070 -331 669 -854 1191 -1520 1520 -341 168 -680 270 -1065
320 -147 19 -540 28 -685 15z m720 -248 c686 -107 1281 -405 1755 -882 482
-483 773 -1064 883 -1760 18 -116 21 -177 21 -440 0 -330 -10 -431 -69 -695
-201 -897 -815 -1675 -1651 -2093 -291 -146 -592 -240 -944 -295 -116 -18
-179 -21 -440 -21 -329 0 -437 10 -695 69 -1154 262 -2082 1189 -2340 2340
-59 266 -69 365 -69 695 0 262 3 324 21 440 110 698 406 1286 888 1765 479
477 1085 780 1750 875 189 28 195 28 490 25 210 -2 299 -7 400 -23z"/>
<path d="M2842 5198 l3 -553 110 0 110 0 0 550 0 550 -113 3 -112 3 2 -553z"/>
<path d="M3935 5738 c-3 -7 -4 -256 -3 -553 l3 -540 110 0 110 0 3 553 2 552
-110 0 c-79 0 -112 -4 -115 -12z"/>
<path d="M650 3468 c0 -176 43 -484 94 -683 368 -1421 1764 -2331 3216 -2095
1202 195 2157 1151 2350 2350 18 114 40 347 40 428 l0 32 -115 0 -115 0 0 -62
c0 -101 -20 -283 -45 -423 -44 -239 -119 -460 -233 -687 -202 -406 -504 -749
-882 -1003 -333 -224 -682 -357 -1100 -422 -163 -25 -559 -25 -720 0 -420 65
-767 199 -1100 422 -689 464 -1115 1216 -1156 2043 l-7 132 -114 0 -113 0 0
-32z"/>
</g>
</svg>
